<svg width="375" height="812" viewBox="0 0 375 812" fill="none" xmlns="http://www.w3.org/2000/svg">
<g id="Mobile" clip-path="url(#clip0_61385:181)">
<rect width="375" height="812" fill="#202024"/>
<circle id="degrad&#195;&#170;1" cx="278" cy="99" r="300" transform="rotate(-180 278 99)" fill="url(#paint0_radial_61385:181)"/>
<circle id="degrad&#195;&#170;2" cx="98" cy="99" r="300" transform="rotate(-180 98 99)" fill="url(#paint1_radial_61385:181)"/>
<g id="build">
<g id="Group 6682">
<path id="Vector" d="M156.382 198.565L153.499 198.145C153.411 198.145 153.322 198.145 153.322 198.233L152.102 199.799C152.032 199.902 152.001 200.025 152.014 200.148C152.014 200.236 151.925 200.412 151.841 200.324L150.877 200.064C150.705 200.064 150.528 200.064 150.456 200.236L146.525 205.274C146.437 205.362 146.348 205.362 146.176 205.362L144.69 204.665C144.627 204.626 144.554 204.605 144.48 204.605C144.405 204.605 144.332 204.626 144.269 204.665L143.444 205.194C143.381 205.235 143.308 205.256 143.234 205.256C143.159 205.256 143.086 205.235 143.023 205.194L142.674 205.022C142.617 204.997 142.555 204.983 142.493 204.982C142.431 204.982 142.369 204.994 142.311 205.018C142.254 205.043 142.202 205.079 142.16 205.124C142.117 205.17 142.084 205.224 142.064 205.282L141.798 206.5C141.767 206.629 141.775 206.765 141.823 206.889C141.87 207.014 141.954 207.121 142.064 207.197L142.762 207.617L144.593 208.75L145.469 209.271C145.592 209.343 145.734 209.374 145.876 209.358C146.018 209.343 146.151 209.283 146.256 209.187L147.737 207.877C147.865 207.805 148.012 207.775 148.158 207.793L148.579 208.053C148.752 208.142 148.928 208.142 149 207.965L149.783 207.268C149.837 207.214 149.905 207.177 149.98 207.161C150.055 207.146 150.133 207.152 150.204 207.18L151.34 207.705C151.428 207.734 151.521 207.741 151.612 207.725C151.703 207.71 151.789 207.673 151.862 207.617L152.388 206.92L156.319 201.882C156.492 201.617 156.403 201.269 156.054 201.269L155.229 201.084C155.052 201.084 154.968 200.824 155.052 200.664L156.45 199.01C156.643 198.834 156.555 198.565 156.382 198.565Z" fill="white"/>
<path id="Vector_2" d="M143.28 208.767C143.192 208.679 143.107 208.767 143.107 208.855L143.528 209.985V210.249L143.179 211.727C143.173 211.775 143.178 211.823 143.193 211.869C143.208 211.915 143.234 211.957 143.267 211.991L144.315 212.772C144.364 212.815 144.426 212.838 144.49 212.838C144.554 212.838 144.616 212.815 144.665 212.772L145.801 211.815C145.835 211.782 145.876 211.756 145.921 211.741C145.967 211.726 146.015 211.721 146.062 211.727L147.287 211.555C147.371 211.555 147.371 211.467 147.287 211.379L143.28 208.767Z" fill="white"/>
<path id="Vector_3" d="M142.931 212.512C142.916 212.491 142.896 212.474 142.874 212.462C142.851 212.451 142.826 212.445 142.8 212.445C142.775 212.445 142.749 212.451 142.727 212.462C142.704 212.474 142.684 212.491 142.67 212.512L141.794 212.932C141.783 212.932 141.771 212.934 141.761 212.938C141.75 212.943 141.741 212.95 141.733 212.958C141.725 212.966 141.719 212.976 141.715 212.986C141.711 212.997 141.709 213.009 141.71 213.02L139.787 217.722H139.875L140.296 217.55V217.634L138.898 219.901C138.898 219.989 138.898 219.989 138.983 219.989L143.873 215.023C143.962 215.023 143.962 214.934 143.962 214.846L144.05 213.54C144.05 213.452 144.05 213.368 143.962 213.368L142.931 212.512Z" fill="white"/>
</g>
<g id="Group 6681">
<path id="Vector_4" d="M137.998 249L136.062 245.385L139.429 243.055L140.077 243.958L139.012 244.676C138.83 244.806 138.64 244.925 138.444 245.033C138.266 245.133 138.08 245.219 137.888 245.289L141.508 246.162L141.26 247.186L137.631 246.309C137.727 246.406 137.815 246.51 137.897 246.62C137.977 246.725 138.052 246.838 138.128 246.96L138.36 247.38L138.974 248.505L137.998 249Z" fill="#FFCD1E"/>
<path id="Vector_5" d="M122.139 235.187C122.715 234.528 123.633 234.461 124.453 235.187L126.137 236.661L122.77 240.494L121.431 239.289C120.556 238.525 120.236 237.723 120.851 237.018C120.983 236.852 121.161 236.729 121.363 236.663C121.565 236.598 121.782 236.592 121.987 236.648C121.836 236.426 121.768 236.158 121.796 235.89C121.824 235.623 121.945 235.374 122.139 235.187ZM123.342 238.387L122.66 237.795C122.24 237.421 121.878 237.316 121.659 237.568C121.44 237.82 121.591 238.152 122.025 238.525L122.703 239.117L123.342 238.387ZM122.795 235.901C122.496 236.245 122.656 236.665 123.128 237.077L123.902 237.748L124.782 236.745L124.007 236.073C123.536 235.662 123.098 235.553 122.795 235.901Z" fill="white"/>
<path id="Vector_6" d="M114.554 231.686L116.877 229.923C117.946 229.108 119.171 229.125 119.958 230.154C120.745 231.182 120.434 232.366 119.365 233.176L117.041 234.94L116.456 234.176L118.872 232.337C119.003 232.258 119.115 232.152 119.202 232.027C119.289 231.902 119.348 231.76 119.377 231.61C119.405 231.46 119.402 231.306 119.367 231.158C119.331 231.01 119.266 230.871 119.173 230.749C119.081 230.628 118.964 230.528 118.83 230.455C118.696 230.381 118.548 230.337 118.396 230.324C118.244 230.312 118.091 230.331 117.947 230.381C117.802 230.431 117.67 230.511 117.559 230.615L115.139 232.45L114.554 231.686Z" fill="white"/>
<path id="Vector_7" d="M116.949 225.754L112.437 228.126L111.987 227.286L116.507 224.901L116.949 225.754Z" fill="white"/>
<path id="Vector_8" d="M113.173 219.259L114.091 218.944L115.076 221.786L110.248 223.465L109.932 222.554L113.838 221.211L113.173 219.259Z" fill="white"/>
<path id="Vector_9" d="M110.194 211.954C111.591 211.761 112.849 212.562 113.081 214.238L113.312 215.917L108.262 216.61L108.034 214.93C107.799 213.209 108.8 212.143 110.194 211.954ZM110.324 212.907C110.119 212.925 109.921 212.985 109.74 213.083C109.559 213.181 109.401 213.314 109.274 213.475C109.147 213.637 109.054 213.822 109.002 214.02C108.949 214.219 108.938 214.425 108.969 214.628L109.087 215.51L112.218 215.09L112.096 214.212C112.071 214.009 112.005 213.813 111.902 213.636C111.798 213.459 111.66 213.304 111.495 213.182C111.33 213.06 111.142 212.973 110.942 212.925C110.742 212.878 110.535 212.872 110.333 212.907H110.324Z" fill="white"/>
<path id="Vector_10" d="M108.737 199.405L109.693 199.594L109.432 200.895L113.485 201.701L113.296 202.646L109.242 201.84L108.981 203.137L108.03 202.948L108.737 199.405Z" fill="white"/>
<path id="Vector_11" d="M111.523 191.684L116.229 193.653L115.854 194.543L113.948 193.745L113.106 195.744L115.013 196.542L114.638 197.427L109.932 195.458L110.307 194.568L112.21 195.366L113.051 193.368L111.149 192.57L111.523 191.684Z" fill="white"/>
<path id="Vector_12" d="M115 187.649L115.905 188.262L116.919 186.768L117.723 187.309L116.709 188.804L117.614 189.417L118.834 187.624L119.638 188.166L117.875 190.756L113.666 187.901L115.425 185.311L116.229 185.856L115 187.649Z" fill="white"/>
<path id="Vector_13" d="M125.173 182.305L122.05 178.278L124.534 176.364L125.127 177.128L123.41 178.455L124.083 179.32L125.514 178.211L126.112 178.98L124.672 180.092L125.935 181.721L125.173 182.305Z" fill="white"/>
<path id="Vector_14" d="M131.571 172.367L132.88 174.966C133.482 176.162 133.242 177.359 132.084 177.942C130.927 178.526 129.816 178.001 129.214 176.801L127.905 174.214L128.768 173.794L130.131 176.498C130.197 176.626 130.286 176.739 130.396 176.832C130.505 176.925 130.631 176.996 130.768 177.04C130.904 177.085 131.048 177.102 131.192 177.09C131.335 177.079 131.474 177.04 131.602 176.975C131.73 176.91 131.844 176.82 131.937 176.711C132.031 176.602 132.101 176.476 132.146 176.34C132.19 176.204 132.207 176.06 132.196 175.917C132.185 175.774 132.145 175.635 132.08 175.507L130.716 172.799L131.571 172.367Z" fill="white"/>
<path id="Vector_15" d="M138.814 169.991L139.071 170.923L137.808 171.276L138.907 175.251L137.973 175.503L136.878 171.532L135.616 171.884L135.355 170.948L138.814 169.991Z" fill="white"/>
<path id="Vector_16" d="M146.862 169L147.072 171.901C147.169 173.236 146.483 174.248 145.191 174.34C143.899 174.433 143.087 173.53 142.981 172.191L142.771 169.294L143.735 169.223L143.949 172.245C143.942 172.399 143.968 172.553 144.024 172.697C144.081 172.84 144.168 172.97 144.278 173.078C144.389 173.186 144.521 173.269 144.667 173.322C144.812 173.375 144.967 173.397 145.121 173.386C145.275 173.375 145.425 173.331 145.561 173.258C145.698 173.185 145.817 173.084 145.911 172.961C146.005 172.839 146.072 172.698 146.108 172.548C146.143 172.397 146.146 172.241 146.117 172.09L145.898 169.067L146.862 169Z" fill="white"/>
<path id="Vector_17" d="M153.125 174.53L152.211 172.699L151.635 172.628L151.42 174.307L150.46 174.181L151.113 169.143L152.91 169.374C154.219 169.542 154.732 170.327 154.594 171.305C154.553 171.662 154.399 171.996 154.155 172.259C153.91 172.522 153.587 172.7 153.234 172.766L154.278 174.685L153.125 174.53ZM151.761 171.666L152.721 171.788C152.822 171.81 152.927 171.812 153.029 171.793C153.131 171.774 153.229 171.734 153.315 171.677C153.402 171.62 153.476 171.546 153.534 171.46C153.592 171.374 153.631 171.277 153.651 171.175C153.664 171.07 153.654 170.963 153.623 170.862C153.592 170.76 153.539 170.667 153.468 170.588C153.398 170.508 153.311 170.445 153.214 170.401C153.117 170.358 153.012 170.335 152.906 170.335L151.946 170.214L151.761 171.666Z" fill="white"/>
<path id="Vector_18" d="M159.493 171.796L159.152 172.833L160.869 173.4L160.566 174.319L158.849 173.753L158.508 174.79L160.57 175.47L160.28 176.389L157.304 175.407L158.899 170.574L161.879 171.553L161.576 172.476L159.493 171.796Z" fill="white"/>
<path id="Vector_19" d="M173.033 176.641L173.311 180.73L169.266 181.469L169.047 180.374L170.31 180.155C170.541 180.113 170.764 180.08 170.975 180.063C171.178 180.046 171.382 180.046 171.585 180.063L168.639 177.779L169.287 176.939L172.233 179.223C172.186 179.096 172.148 178.966 172.12 178.833C172.087 178.695 172.065 178.554 172.052 178.413C172.052 178.274 172.019 178.115 172.006 177.947L171.909 176.687L173.033 176.641Z" fill="#FFCD1E"/>
<path id="Vector_20" d="M179.893 195.156L180.954 193.409L180.71 192.885L179.17 193.598L178.749 192.725L183.378 190.584L184.145 192.221C184.7 193.414 184.309 194.266 183.416 194.681C183.092 194.838 182.726 194.886 182.373 194.819C182.019 194.753 181.696 194.575 181.451 194.312L180.382 196.218L179.893 195.156ZM181.577 192.477L181.998 193.351C182.033 193.448 182.088 193.538 182.159 193.614C182.23 193.69 182.315 193.751 182.41 193.794C182.505 193.837 182.608 193.86 182.712 193.862C182.816 193.865 182.92 193.846 183.016 193.808C183.111 193.762 183.196 193.697 183.263 193.617C183.331 193.536 183.381 193.442 183.41 193.341C183.438 193.24 183.445 193.134 183.429 193.03C183.414 192.926 183.376 192.826 183.32 192.738L182.899 191.864L181.577 192.477Z" fill="white"/>
<path id="Vector_21" d="M184.965 203.276C184.453 203.388 183.919 203.346 183.431 203.156C182.942 202.966 182.521 202.636 182.221 202.207C181.92 201.779 181.753 201.271 181.741 200.749C181.729 200.226 181.873 199.711 182.153 199.269C182.434 198.828 182.84 198.479 183.319 198.267C183.798 198.055 184.329 197.989 184.846 198.077C185.363 198.166 185.842 198.405 186.222 198.764C186.603 199.124 186.868 199.588 186.985 200.098C187.14 200.786 187.014 201.508 186.635 202.104C186.256 202.7 185.655 203.121 184.965 203.276V203.276ZM184.75 202.335C185.074 202.258 185.367 202.088 185.593 201.845C185.819 201.602 185.968 201.298 186.021 200.97C186.074 200.643 186.029 200.308 185.891 200.006C185.753 199.705 185.529 199.45 185.247 199.275C184.965 199.101 184.637 199.013 184.305 199.024C183.973 199.034 183.651 199.142 183.381 199.335C183.111 199.527 182.903 199.795 182.785 200.105C182.667 200.415 182.644 200.753 182.717 201.076C182.766 201.293 182.857 201.498 182.986 201.68C183.115 201.862 183.279 202.016 183.468 202.134C183.657 202.252 183.868 202.331 184.088 202.367C184.308 202.403 184.533 202.395 184.75 202.344V202.335Z" fill="white"/>
<path id="Vector_22" d="M184.17 210.619L183.294 211.001C182.894 210.55 182.668 209.973 182.654 209.372C182.649 209.022 182.713 208.674 182.842 208.348C182.971 208.023 183.163 207.726 183.407 207.474C183.652 207.223 183.943 207.022 184.265 206.883C184.588 206.744 184.934 206.669 185.285 206.664C185.636 206.658 185.985 206.722 186.311 206.851C186.637 206.979 186.935 207.171 187.187 207.415C187.439 207.659 187.641 207.949 187.78 208.271C187.92 208.592 187.994 208.938 188 209.288C188.009 209.888 187.803 210.471 187.419 210.933L186.531 210.581C186.857 210.243 187.035 209.79 187.027 209.321C187.011 209.049 186.928 208.785 186.787 208.552C186.645 208.319 186.448 208.123 186.214 207.983C185.98 207.842 185.715 207.761 185.442 207.746C185.169 207.73 184.896 207.781 184.648 207.895C184.399 208.008 184.182 208.18 184.015 208.396C183.848 208.611 183.736 208.865 183.689 209.133C183.641 209.402 183.661 209.678 183.744 209.937C183.828 210.197 183.974 210.432 184.17 210.623V210.619Z" fill="white"/>
<path id="Vector_23" d="M181.665 218.083L181.905 216.887L184.464 215.447L182.276 215.027L182.465 214.082L187.469 215.069L187.28 216.013L185.209 215.594L186.935 217.76L186.695 218.952L184.725 216.358L181.665 218.083Z" fill="white"/>
<path id="Vector_24" d="M184.212 223.335L183.197 222.916L182.511 224.595L181.615 224.23L182.296 222.55L181.286 222.131L180.445 224.133L179.544 223.768L180.727 220.871L185.453 222.794L184.266 225.691L183.37 225.325L184.212 223.335Z" fill="white"/>
<path id="Vector_25" d="M180.483 232.27L179.683 231.732L180.403 230.62L176.93 228.386L177.452 227.58L180.925 229.814L181.648 228.701L182.465 229.226L180.483 232.27Z" fill="white"/>
<path id="Vector_26" d="M172.679 235.796C172.018 235.166 171.976 234.163 172.907 233.197C173.167 232.915 173.483 232.689 173.835 232.534C174.187 232.38 174.567 232.3 174.952 232.299L175.23 233.235C174.928 233.227 174.627 233.28 174.347 233.391C174.066 233.502 173.811 233.669 173.597 233.882C173.134 234.365 173.045 234.814 173.302 235.062C173.559 235.309 173.942 235.171 174.472 234.763C175.63 233.878 176.362 233.899 176.918 234.432C177.473 234.965 177.595 236.027 176.72 236.951C176.286 237.416 175.702 237.714 175.07 237.79L174.75 236.921C175.231 236.861 175.676 236.639 176.013 236.292C176.37 235.922 176.577 235.498 176.282 235.213C175.987 234.927 175.735 235.095 175.137 235.536C174.258 236.17 173.466 236.552 172.679 235.796Z" fill="white"/>
<path id="Vector_27" d="M170.802 240.658L170.171 239.768L168.694 240.809L168.134 240.02L169.611 238.978L168.98 238.088L167.204 239.348L166.644 238.554L169.207 236.749L172.153 240.901L169.59 242.711L169.03 241.917L170.802 240.658Z" fill="white"/>
<path id="Vector_28" d="M161.353 242.341L163.31 241.472L163.26 240.435L164.253 240.016L164.409 245.52L163.609 245.872L159.623 242.064L160.612 241.644L161.353 242.341ZM162.085 243.076L163.466 244.453L163.365 242.509L162.085 243.076Z" fill="white"/>
<path id="Vector_29" d="M155.296 248.433L155.069 247.489L156.361 247.182L155.406 243.173L156.344 242.95L157.3 246.96L158.592 246.653L158.819 247.594L155.296 248.433Z" fill="white"/>
</g>
</g>
<g id="mask">
<mask id="mask0_61385:181" style="mask-type:alpha" maskUnits="userSpaceOnUse" x="0" y="0" width="375" height="812">
<rect id="retangle" width="375" height="812" fill="#202024"/>
</mask>
<g mask="url(#mask0_61385:181)">
<g id="vetor">
<path id="Vector_30" d="M375 168.101V-310.699L187.478 -418.486L-0.0446777 -310.699V168.101L187.478 275.894L375 168.101Z" fill="url(#paint2_linear_61385:181)"/>
<g id="vector" style="mix-blend-mode:luminosity" opacity="0.4">
<path id="Vector_31" d="M1.83663 61.3931V168.797L95.1275 222.505L188.418 168.797V61.3931L95.1275 7.68577L1.83663 61.3931Z" fill="url(#paint3_linear_61385:181)"/>
<path id="Vector_32" d="M1.83663 -46.0166V61.3877L95.1275 115.095L188.418 61.3877V-46.0166L95.1275 -99.7239L1.83663 -46.0166Z" fill="url(#paint4_linear_61385:181)"/>
<path id="Vector_33" d="M281.709 -99.6961V7.70821L188.418 61.4155L95.1274 7.70821V-99.6961L188.418 -153.403L281.709 -99.6961Z" fill="url(#paint5_linear_61385:181)"/>
<path id="Vector_34" d="M188.418 168.797V61.3927L281.709 7.68539L375 61.3927V168.797L281.709 222.504L188.418 168.797Z" fill="url(#paint6_linear_61385:181)"/>
<path id="Vector_35" d="M375 -46.0166V61.3877L281.709 115.095L188.418 61.3877V-46.0166L281.709 -99.7239L375 -46.0166Z" fill="url(#paint7_linear_61385:181)"/>
<path id="Vector_36" d="M281.709 222.527V115.123L188.418 61.4155L95.1274 115.123L95.1274 222.527L188.418 276.235L281.709 222.527Z" fill="url(#paint8_linear_61385:181)"/>
</g>
</g>
</g>
</g>
</g>
<defs>
<radialGradient id="paint0_radial_61385:181" cx="0" cy="0" r="1" gradientUnits="userSpaceOnUse" gradientTransform="translate(278 99) rotate(90) scale(300)">
<stop stop-color="#FFC323"/>
<stop offset="1" stop-color="#121214" stop-opacity="0"/>
</radialGradient>
<radialGradient id="paint1_radial_61385:181" cx="0" cy="0" r="1" gradientUnits="userSpaceOnUse" gradientTransform="translate(98 99) rotate(90) scale(300)">
<stop stop-color="#FF3D6E"/>
<stop offset="1" stop-color="#121214" stop-opacity="0"/>
</radialGradient>
<linearGradient id="paint2_linear_61385:181" x1="-67.9497" y1="58.9385" x2="436.115" y2="232.357" gradientUnits="userSpaceOnUse">
<stop stop-color="#FF008E"/>
<stop offset="1" stop-color="#FFCD1E"/>
</linearGradient>
<linearGradient id="paint3_linear_61385:181" x1="95.1275" y1="217.565" x2="2.23833" y2="59.047" gradientUnits="userSpaceOnUse">
<stop stop-color="#8257E5"/>
<stop offset="1" stop-color="#FF008E" stop-opacity="0"/>
</linearGradient>
<linearGradient id="paint4_linear_61385:181" x1="95.1275" y1="110.155" x2="2.23831" y2="-48.3627" gradientUnits="userSpaceOnUse">
<stop stop-color="#8257E5"/>
<stop offset="1" stop-color="#FF008E" stop-opacity="0"/>
</linearGradient>
<linearGradient id="paint5_linear_61385:181" x1="95.1275" y1="-105.732" x2="281.421" y2="6.68569" gradientUnits="userSpaceOnUse">
<stop stop-color="#FF008E" stop-opacity="0"/>
<stop offset="1" stop-color="#FFCD1E"/>
</linearGradient>
<linearGradient id="paint6_linear_61385:181" x1="375" y1="174.833" x2="188.706" y2="62.4152" gradientUnits="userSpaceOnUse">
<stop stop-color="#FF008E" stop-opacity="0"/>
<stop offset="1" stop-color="#FFCD1E"/>
</linearGradient>
<linearGradient id="paint7_linear_61385:181" x1="281.709" y1="110.155" x2="374.598" y2="-48.3627" gradientUnits="userSpaceOnUse">
<stop stop-color="#8257E5"/>
<stop offset="1" stop-color="#FF008E" stop-opacity="0"/>
</linearGradient>
<linearGradient id="paint8_linear_61385:181" x1="188.418" y1="66.3552" x2="281.307" y2="224.873" gradientUnits="userSpaceOnUse">
<stop stop-color="#8257E5"/>
<stop offset="1" stop-color="#FF008E" stop-opacity="0"/>
</linearGradient>
<clipPath id="clip0_61385:181">
<rect width="375" height="812" fill="white"/>
</clipPath>
</defs>
</svg>
